<svg width="2734" height="720" viewBox="0 0 2734 720" fill="none" xmlns="http://www.w3.org/2000/svg">
<path d="M0 720H153.05V-4.51986e-05H0V720ZM816.506 0.00368325L502.886 600.296L377.225 360.002L565.391 0.00368325H397.539L206.274 360.002L397.539 720H606.027L664.552 607.8H879.448L816.725 487.873H727.279L816.725 316.489L1027.21 720H1192.63L816.503 0.00368325H816.506ZM1546.45 0.00368325L1335.53 403.514L1124.83 0.00368325H959.409L1335.54 720L1711.66 0.00368325H1546.46H1546.45ZM2167.94 0.00368325V599.633L1854.77 0.00368325L1478.64 720H1644.06L1854.98 316.493L1944.42 487.877H1854.98L1792.25 607.804H2007.15L2065.68 720H2321.21V0.00368325H2167.93H2167.94ZM2565.49 0.00368325L2374.22 360.002L2565.49 720H2733.34L2545.17 360.002L2733.34 0.00368325H2565.49Z" fill="white"/>
</svg>
